<svg width="108" height="33" viewBox="0 0 108 33" fill="none" xmlns="http://www.w3.org/2000/svg">
<g clip-path="url(#clip0_2001_22524)">
<path d="M38.392 2.5293H35.351V22.6365H38.392V2.5293Z" fill="white"/>
<path d="M0 16.3027L0.85782 16.2597C1.15301 19.8539 3.98599 22.1348 7.78972 22.338C11.9203 22.5608 13.5647 20.7862 13.6934 18.4565C13.848 15.6558 11.8609 14.7216 7.32416 13.502C3.11232 12.3587 0.798387 10.7854 1.00838 6.98397C1.18074 3.85883 4.55853 1.64641 8.16415 1.83989C11.8688 2.03925 14.363 3.32527 14.9039 7.82047L14.0797 7.86542C13.4715 3.98978 11.6014 2.73503 8.12651 2.54936C5.60258 2.4145 3.32826 3.68097 3.21138 5.83281C3.0628 8.51625 4.719 9.49152 8.60792 10.5274C13.4715 11.7645 16.2174 13.2421 16.0093 17.0161C15.8251 20.3465 13.1288 23.3367 7.75208 23.0475C3.42138 22.8149 0.245658 20.1901 0 16.3027Z" fill="white"/>
<path d="M25.2103 2.23242C30.8565 2.23242 32.8296 4.08914 32.8296 7.77325C32.8296 11.2209 30.3493 13.2848 25.0023 13.2848H21.4719V22.5683H18.425V2.23242H25.2123H25.2103ZM21.4719 12.5773H24.9428C28.3781 12.5773 29.8124 10.8378 29.8124 7.77325C29.8124 4.29435 28.4672 2.91061 25.032 2.91061H21.4719V12.5792V12.5773Z" fill="white"/>
<path d="M73.8875 2.33789V3.04735H63.4054V11.6684H70.1986V12.3778H63.4054V22.0015H73.8201V22.7109H60.3525V2.33789H73.8875Z" fill="white"/>
<path d="M92.6584 2.24219V2.82852H93.2131C93.5677 2.82852 93.857 3.11191 93.857 3.46371V29.8584C93.857 30.2395 94.4652 30.1672 94.7702 29.8662L103.553 23.9169C103.871 23.7039 103.776 23.2641 103.776 22.9631L103.784 3.36794C103.78 3.07087 104.024 2.82852 104.325 2.82852H107.122V2.24219H92.6604H92.6584Z" fill="white"/>
<path d="M76.5373 2.24219V2.82852H79.2732C79.7784 2.82852 80.1865 3.23113 80.1865 3.72951V22.627C80.1865 23.0081 80.7947 22.9358 81.0998 22.6348L89.6839 16.6855C90.0029 16.4724 89.9078 16.0327 89.9078 15.7317L89.9157 3.36794C89.9118 3.07087 90.1554 2.82852 90.4566 2.82852H91.1262V2.24219H76.5393H76.5373Z" fill="white"/>
<path d="M58.0126 2.1875H50.3754C50.3754 2.1875 41.5693 1.98229 40.8007 12.4581C40.8007 12.4581 40.3767 20.5924 49.1253 22.5195C49.8266 22.6739 50.5458 22.7423 51.2649 22.7423H58.0126V22.0348H51.675C49.367 22.0348 47.168 20.9755 45.8287 19.1227C44.7946 17.6921 43.9586 15.5695 43.8456 12.4268C43.8456 12.4268 43.0076 6.08465 49.0243 3.38166C49.7652 3.04941 50.5715 2.88133 51.3857 2.88133H58.0145L58.0126 2.18555V2.1875Z" fill="white"/>
</g>
<defs>
<clipPath id="clip0_2001_22524">
<rect width="107.259" height="32" fill="white" transform="translate(0 0.5)"/>
</clipPath>
</defs>
</svg>
